<svg width="100%" height="100%" viewBox="0 0 258 284" fill="none" xmlns="http://www.w3.org/2000/svg">
<path opacity="0.9" d="M129.9 0.339998C156.66 0.559998 177.83 64.22 177.19 142.52C176.55 220.82 154.35 284.13 127.59 283.92C100.83 283.71 79.6499 220.04 80.2899 141.74C80.9299 63.44 103.14 0.129998 129.9 0.339998ZM127.65 276.34C151.27 276.54 170.95 212.72 171.51 143.59C172.07 74.46 153.45 8.46 129.83 8.27C106.21 8.08 86.5199 73.76 85.9599 142.89C85.3999 212.02 104.02 276.13 127.65 276.34Z" fill="url(#paint0_linear_1_3)"/>
<path opacity="0.9" d="M105.94 99.37C175.04 62.53 241.27 51.8 253.86 75.37C266.45 98.94 220.64 148.04 151.54 184.88C82.44 221.72 16.22 232.46 3.62 208.88C-8.98 185.3 36.84 136.22 105.94 99.37ZM109.59 103.86C48.59 136.39 -0.490032 184.27 10.59 205.12C21.67 225.97 88.82 211.88 149.82 179.35C210.82 146.82 258.26 99.82 247.14 78.98C236.02 58.14 170.6 71.33 109.59 103.86Z" fill="url(#paint1_linear_1_3)"/>
<path opacity="0.9" d="M107.01 185.44C37.01 150.32 -9.98998 102.44 2.01002 78.55C14.01 54.66 80.48 63.71 150.48 98.82C220.48 133.93 267.48 181.82 255.48 205.71C243.48 229.6 177.01 220.55 107.01 185.44ZM108.57 179.87C170.36 210.87 237.79 223.27 248.39 202.16C258.99 181.05 208.74 134.4 146.93 103.4C85.12 72.4 19.37 60.83 8.74 81.94C-1.89 103.05 46.74 148.87 108.57 179.87Z" fill="url(#paint2_linear_1_3)"/>
<path d="M147.09 49.92C148.363 52.5552 150.389 54.7538 152.911 56.2379C155.434 57.722 158.339 58.4249 161.261 58.2579C164.183 58.0908 166.99 57.0612 169.327 55.2992C171.663 53.5373 173.425 51.1221 174.39 48.3589C175.354 45.5957 175.478 42.6087 174.745 39.7754C174.012 36.942 172.455 34.3896 170.272 32.4407C168.088 30.4919 165.376 29.2341 162.478 28.8263C159.58 28.4186 156.626 28.8792 153.99 30.15C152.238 30.9944 150.67 32.1757 149.375 33.6265C148.08 35.0773 147.084 36.769 146.443 38.6051C145.802 40.4411 145.529 42.3855 145.64 44.3269C145.751 46.2684 146.244 48.169 147.09 49.92Z" fill="#283271"/>
<path d="M194.6 219.06C195.918 221.79 198.016 224.069 200.629 225.607C203.242 227.145 206.253 227.873 209.28 227.7C212.307 227.527 215.215 226.46 217.636 224.635C220.056 222.809 221.882 220.307 222.88 217.444C223.879 214.581 224.006 211.486 223.246 208.551C222.485 205.616 220.872 202.972 218.609 200.954C216.346 198.936 213.536 197.634 210.533 197.214C207.53 196.793 204.47 197.272 201.74 198.59C199.926 199.464 198.303 200.688 196.962 202.19C195.621 203.692 194.59 205.444 193.927 207.345C193.264 209.246 192.982 211.259 193.097 213.27C193.213 215.28 193.723 217.247 194.6 219.06Z" fill="#283271"/>
<path d="M36.36 220.8C37.6773 223.531 39.7748 225.809 42.3871 227.348C44.9995 228.887 48.0094 229.616 51.0363 229.444C54.0632 229.273 56.9713 228.207 59.3926 226.382C61.814 224.558 63.64 222.056 64.6398 219.194C65.6395 216.332 65.7681 213.238 65.0093 210.302C64.2505 207.367 62.6384 204.722 60.3768 202.703C58.1151 200.684 55.3056 199.381 52.3033 198.959C49.3011 198.536 46.241 199.013 43.51 200.33C39.8489 202.098 37.0393 205.247 35.6986 209.085C34.3579 212.924 34.5958 217.137 36.36 220.8Z" fill="#283271"/>
<path d="M129.74 191.42C115.413 191.42 103.58 186.663 94.24 177.15C84.9 167.637 80.2333 155.897 80.24 141.93C80.24 127.89 84.9067 116.13 94.24 106.65C103.573 97.17 115.407 92.4367 129.74 92.45C138.073 92.3731 146.286 94.4392 153.59 98.45C160.656 102.267 166.553 107.932 170.65 114.84L154.48 124.22C152.157 119.989 148.664 116.518 144.42 114.22C139.913 111.793 134.858 110.567 129.74 110.66C120.493 110.66 113.033 113.563 107.36 119.37C101.687 125.177 98.8567 132.697 98.87 141.93C98.87 151.09 101.7 158.57 107.36 164.37C113.02 170.17 120.48 173.07 129.74 173.07C134.882 173.14 139.958 171.901 144.49 169.47C148.718 167.234 152.195 163.806 154.49 159.61L170.66 168.99C166.581 175.889 160.705 181.55 153.66 185.37C146.345 189.423 138.103 191.507 129.74 191.42Z" fill="#001689"/>
<path d="M117.61 138.06L114.74 142.99L117.62 147.88H114.52L111.66 143.02L114.52 138.13L117.61 138.06ZM122.55 138.06L119.67 142.99L122.55 147.88H119.46L116.59 143.02L119.46 138.13L122.55 138.06Z" fill="#001689"/>
<path d="M136.24 132.81H139.8V151.03H136.24V143.48H129.47V151.03H125.88V132.81H129.47V140.05H136.24V132.81Z" fill="#001689"/>
<path d="M149.82 132.45C151.262 132.453 152.685 132.785 153.98 133.422C155.274 134.058 156.406 134.982 157.289 136.122C158.172 137.263 158.783 138.59 159.075 140.002C159.367 141.415 159.333 142.875 158.975 144.273C158.616 145.67 157.943 146.967 157.008 148.064C156.072 149.162 154.897 150.031 153.574 150.606C152.251 151.181 150.815 151.445 149.374 151.38C147.933 151.315 146.526 150.922 145.26 150.23C143.915 149.498 142.792 148.417 142.01 147.1L145.11 145.3C145.546 146.105 146.211 146.762 147.02 147.19C147.879 147.655 148.843 147.893 149.82 147.88C151.155 147.918 152.464 147.51 153.54 146.72C154.557 145.947 155.266 144.838 155.54 143.59H147.42V140.23H155.54C155.266 138.982 154.557 137.873 153.54 137.1C152.467 136.303 151.156 135.894 149.82 135.94C148.849 135.926 147.891 136.164 147.04 136.63C146.224 137.064 145.553 137.728 145.11 138.54L142.01 136.74C142.797 135.42 143.927 134.338 145.28 133.61C146.669 132.841 148.232 132.441 149.82 132.45Z" fill="#001689"/>
<path d="M177.14 148.65C175.583 150.227 173.526 151.215 171.322 151.445C169.117 151.674 166.902 151.132 165.053 149.91C163.204 148.687 161.836 146.861 161.184 144.743C160.532 142.625 160.635 140.346 161.476 138.295C162.317 136.244 163.843 134.549 165.795 133.499C167.747 132.449 170.003 132.108 172.177 132.536C174.352 132.964 176.311 134.134 177.719 135.845C179.128 137.556 179.899 139.704 179.9 141.92C179.925 143.171 179.693 144.414 179.218 145.571C178.744 146.729 178.036 147.777 177.14 148.65ZM166.24 146.2C167.068 147.042 168.13 147.615 169.288 147.844C170.446 148.074 171.646 147.95 172.732 147.488C173.819 147.027 174.741 146.248 175.379 145.255C176.017 144.262 176.341 143.1 176.31 141.92C176.336 141.127 176.199 140.338 175.909 139.6C175.618 138.862 175.18 138.192 174.62 137.63C173.499 136.537 171.996 135.925 170.43 135.925C168.864 135.925 167.361 136.537 166.24 137.63C165.155 138.793 164.551 140.324 164.551 141.915C164.551 143.506 165.155 145.037 166.24 146.2Z" fill="#001689"/>
<path d="M185.47 138.13L188.31 142.99L185.47 147.83H182.37L185.24 142.97L182.37 138.13H185.47ZM190.41 138.13L193.26 142.99L190.41 147.83H187.32L190.18 142.97L187.32 138.13H190.41Z" fill="#001689"/>
<defs>
<linearGradient id="paint0_linear_1_3" x1="80.2799" y1="142.13" x2="177.21" y2="142.13" gradientUnits="userSpaceOnUse">
<stop stop-color="#001689"/>
<stop offset="0.37" stop-color="#02188A"/>
<stop offset="0.5" stop-color="#091E8D"/>
<stop offset="0.6" stop-color="#142992"/>
<stop offset="0.68" stop-color="#25389A"/>
<stop offset="0.74" stop-color="#3B4CA4"/>
<stop offset="0.8" stop-color="#5765B1"/>
<stop offset="0.85" stop-color="#7783C0"/>
<stop offset="0.9" stop-color="#9DA5D2"/>
<stop offset="0.95" stop-color="#C8CDE6"/>
<stop offset="0.99" stop-color="#F6F7FB"/>
<stop offset="1" stop-color="#EDEBF2"/>
</linearGradient>
<linearGradient id="paint1_linear_1_3" x1="1.54" y1="142.13" x2="255.94" y2="142.13" gradientUnits="userSpaceOnUse">
<stop stop-color="#001689"/>
<stop offset="0.37" stop-color="#02188A"/>
<stop offset="0.5" stop-color="#091E8D"/>
<stop offset="0.6" stop-color="#142992"/>
<stop offset="0.68" stop-color="#25389A"/>
<stop offset="0.74" stop-color="#3B4CA4"/>
<stop offset="0.8" stop-color="#5765B1"/>
<stop offset="0.85" stop-color="#7783C0"/>
<stop offset="0.9" stop-color="#9DA5D2"/>
<stop offset="0.95" stop-color="#C8CDE6"/>
<stop offset="0.99" stop-color="#F6F7FB"/>
<stop offset="1" stop-color="#EDEBF2"/>
</linearGradient>
<linearGradient id="paint2_linear_1_3" x1="0.130021" y1="142.13" x2="257.35" y2="142.13" gradientUnits="userSpaceOnUse">
<stop stop-color="#001689"/>
<stop offset="0.37" stop-color="#02188A"/>
<stop offset="0.5" stop-color="#091E8D"/>
<stop offset="0.6" stop-color="#142992"/>
<stop offset="0.68" stop-color="#25389A"/>
<stop offset="0.74" stop-color="#3B4CA4"/>
<stop offset="0.8" stop-color="#5765B1"/>
<stop offset="0.85" stop-color="#7783C0"/>
<stop offset="0.9" stop-color="#9DA5D2"/>
<stop offset="0.95" stop-color="#C8CDE6"/>
<stop offset="0.99" stop-color="#F6F7FB"/>
<stop offset="1" stop-color="#EDEBF2"/>
</linearGradient>
</defs>
</svg>
